
<svg width="200" height="200" viewBox="0 0 200 200" fill="none" xmlns="http://www.w3.org/2000/svg">
  <rect width="200" height="200" rx="40" fill="transparent"/>
  <path d="M35 80 L35 120 L50 120 C57 120 62 115 62 107 C62 102 60 99 56 97 C58 96 60 93 60 89 C60 83 56 80 50 80 L35 80 Z M45 88 L49 88 C51 88 52 89 52 91 C52 93 51 94 49 94 L45 94 L45 88 Z M45 102 L50 102 C52 102 53 103 53 105 C53 107 52 108 50 108 L45 108 L45 102 Z" fill="#E86C42"/>
  <path d="M70 80 L70 120 L80 120 L80 107 L82 107 L88 120 L99 120 L91 105 C95 102 97 98 97 93 C97 85 92 80 85 80 L70 80 Z M80 88 L83 88 C86 88 87 90 87 93 C87 96 86 98 83 98 L80 98 L80 88 Z" fill="#E86C42"/>
  <path d="M109 80 L99 120 L110 120 L111 114 L122 114 L123 120 L134 120 L124 80 L109 80 Z M113 106 L116 90 L119 106 L113 106 Z" fill="#E86C42"/>
  <path d="M135 80 L135 120 L145 120 L145 107 L147 107 L153 120 L164 120 L156 105 C160 102 162 98 162 93 C162 85 157 80 150 80 L135 80 Z M145 88 L148 88 C151 88 152 90 152 93 C152 96 151 98 148 98 L145 98 L145 88 Z" fill="#E86C42"/>
  <path d="M168 80 L168 88 L178 88 L178 120 L188 120 L188 88 L198 88 L198 80 L168 80 Z" fill="#E86C42"/>
  <path d="M165 100 L165 120 L170 120 L170 115 L175 120 L180 120 L175 115 C177 114 178 112 178 110 C178 105 175 102 170 102 L165 102 Z" fill="#9B44F6"/>
  <path d="M168 105 L170 105 C171 105 172 106 172 107 C172 108 171 109 170 109 L168 109 L168 105 Z" fill="#9B44F6"/>
  <polygon points="185,102 180,110 185,120 190,120 185,110 190,102" fill="#9B44F6"/>
</svg>
